<svg height="496pt" viewBox="0 0 496 496" width="496pt" xmlns="http://www.w3.org/2000/svg"><path d="m288 136h-256c-13.257812 0-24 10.742188-24 24v40h280zm0 0" fill="#999"/><path d="m368 296 48.753906-32.503906c44.511719-29.671875 71.246094-79.632813 71.246094-133.128906v-122.367188h-120" fill="#ca5057"/><path d="m368 8h-120v122.367188c0 53.496093 26.734375 103.457031 71.246094 133.128906l48.753906 32.503906" fill="#dc6068"/><path d="m368 200h-64v-80h64" fill="#70b48f"/><path d="m368 120h64v80h-64" fill="#599072"/><path d="m40 200h208v32h-208zm0 0" fill="#5789d6"/><path d="m40 200h176v32h-176zm0 0" fill="#699ce6"/><path d="m40 296h208v32h-208zm0 0" fill="#5789d6"/><path d="m40 296h176v32h-176zm0 0" fill="#699ce6"/><path d="m40 392h208v32h-208zm0 0" fill="#5789d6"/><path d="m40 392h176v32h-176zm0 0" fill="#699ce6"/><path d="m8 424h272v64h-272zm0 0" fill="#999"/><path d="m8 328h272v64h-272zm0 0" fill="#999"/><path d="m8 232h272v64h-272zm0 0" fill="#999"/><g fill="#bab8b9"><path d="m8 424h208v64h-208zm0 0"/><path d="m8 328h208v64h-208zm0 0"/><path d="m8 232h208v64h-208zm0 0"/><path d="m216 136h-184c-13.257812 0-24 10.742188-24 24v40h208zm0 0"/></g><path d="m72 72c0 8.835938-7.164062 16-16 16s-16-7.164062-16-16 7.164062-16 16-16 16 7.164062 16 16zm0 0" fill="#699ce6"/><path d="m168 24c0 8.835938-7.164062 16-16 16s-16-7.164062-16-16 7.164062-16 16-16 16 7.164062 16 16zm0 0" fill="#dc6068"/><path d="m488 456c0 13.253906-10.746094 24-24 24s-24-10.746094-24-24 10.746094-24 24-24 24 10.746094 24 24zm0 0" fill="#599072"/><path d="m408 360c0 13.253906-10.746094 24-24 24s-24-10.746094-24-24 10.746094-24 24-24 24 10.746094 24 24zm0 0" fill="#f8cf6a"/><path d="m280 496h-272c-4.414062 0-8-3.574219-8-8v-64c0-4.425781 3.585938-8 8-8h272c4.414062 0 8 3.574219 8 8v64c0 4.425781-3.585938 8-8 8zm-264-16h256v-48h-256zm0 0"/><path d="m280 400h-272c-4.414062 0-8-3.574219-8-8v-64c0-4.425781 3.585938-8 8-8h272c4.414062 0 8 3.574219 8 8v64c0 4.425781-3.585938 8-8 8zm-264-16h256v-48h-256zm0 0"/><path d="m280 304h-272c-4.414062 0-8-3.574219-8-8v-64c0-4.414062 3.585938-8 8-8h272c4.414062 0 8 3.585938 8 8v64c0 4.425781-3.585938 8-8 8zm-264-16h256v-48h-256zm0 0"/><path d="m264 208h-256c-4.414062 0-8-3.585938-8-8v-40c0-17.648438 14.351562-32 32-32h216v16h-216c-8.824219 0-16 7.175781-16 16v32h248zm0 0"/><path d="m32 200h16v32h-16zm0 0"/><path d="m32 296h16v32h-16zm0 0"/><path d="m32 392h16v32h-16zm0 0"/><path d="m240 200h16v32h-16zm0 0"/><path d="m240 296h16v32h-16zm0 0"/><path d="m240 392h16v32h-16zm0 0"/><path d="m8 448h40v16h-40zm0 0"/><path d="m240 448h40v16h-40zm0 0"/><path d="m8 352h40v16h-40zm0 0"/><path d="m240 352h40v16h-40zm0 0"/><path d="m8 256h40v16h-40zm0 0"/><path d="m240 256h40v16h-40zm0 0"/><path d="m8 160h40v16h-40zm0 0"/><path d="m368 304c-1.542969 0-3.097656-.449219-4.441406-1.34375l-48.75-32.496094c-46.839844-31.230468-74.808594-83.488281-74.808594-139.792968v-122.367188c0-4.414062 3.585938-8 8-8h240c4.414062 0 8 3.585938 8 8v122.367188c0 56.304687-27.96875 108.554687-74.808594 139.785156l-48.75 32.496094c-1.34375.902343-2.898437 1.351562-4.441406 1.351562zm-44.320312-47.160156 44.320312 29.542968 44.320312-29.535156c42.375-28.253906 67.679688-75.535156 67.679688-126.480468v-114.367188h-224v114.367188c0 50.945312 25.304688 98.226562 67.679688 126.472656zm0 0"/><path d="m432 208h-128c-4.414062 0-8-3.585938-8-8v-80c0-4.414062 3.585938-8 8-8h128c4.414062 0 8 3.585938 8 8v80c0 4.414062-3.585938 8-8 8zm-120-16h112v-64h-112zm0 0"/><path d="m344 144h48v16h-48zm0 0"/><path d="m360 152h16v24h-16zm0 0"/><path d="m424 120h-16v-16c0-22.054688-17.945312-40-40-40s-40 17.945312-40 40v16h-16v-16c0-30.878906 25.121094-56 56-56s56 25.121094 56 56zm0 0"/><path d="m392 120h-16v-16c0-4.40625-3.59375-8-8-8s-8 3.59375-8 8v16h-16v-16c0-13.230469 10.769531-24 24-24s24 10.769531 24 24zm0 0"/><path d="m272 32h16v16h-16zm0 0"/><path d="m448 32h16v16h-16zm0 0"/><path d="m64 448h16v16h-16zm0 0"/><path d="m208 448h16v16h-16zm0 0"/><path d="m64 352h16v16h-16zm0 0"/><path d="m208 352h16v16h-16zm0 0"/><path d="m64 256h16v16h-16zm0 0"/><path d="m208 256h16v16h-16zm0 0"/><path d="m64 160h16v16h-16zm0 0"/><path d="m208 160h16v16h-16zm0 0"/><path d="m464 488c-17.648438 0-32-14.351562-32-32s14.351562-32 32-32 32 14.351562 32 32-14.351562 32-32 32zm0-48c-8.824219 0-16 7.175781-16 16s7.175781 16 16 16 16-7.175781 16-16-7.175781-16-16-16zm0 0"/><path d="m280 448h160v16h-160zm0 0"/><path d="m384 392c-17.648438 0-32-14.351562-32-32s14.351562-32 32-32 32 14.351562 32 32-14.351562 32-32 32zm0-48c-8.824219 0-16 7.175781-16 16s7.175781 16 16 16 16-7.175781 16-16-7.175781-16-16-16zm0 0"/><path d="m280 352h80v16h-80zm0 0"/><path d="m56 96c-13.230469 0-24-10.769531-24-24s10.769531-24 24-24 24 10.769531 24 24-10.769531 24-24 24zm0-32c-4.40625 0-8 3.59375-8 8s3.59375 8 8 8 8-3.59375 8-8-3.59375-8-8-8zm0 0"/><path d="m152 48c-13.230469 0-24-10.769531-24-24s10.769531-24 24-24 24 10.769531 24 24-10.769531 24-24 24zm0-32c-4.40625 0-8 3.59375-8 8s3.59375 8 8 8 8-3.59375 8-8-3.59375-8-8-8zm0 0"/><path d="m144 40h16v96h-16zm0 0"/><path d="m128 136h-16v-56h-40v-16h48c4.414062 0 8 3.585938 8 8zm0 0"/></svg>