<?xml version="1.0" encoding="iso-8859-1"?>
<!-- Generator: Adobe Illustrator 19.0.0, SVG Export Plug-In . SVG Version: 6.00 Build 0)  -->
<svg xmlns="http://www.w3.org/2000/svg" xmlns:xlink="http://www.w3.org/1999/xlink" version="1.1" id="Layer_1" x="0px" y="0px" viewBox="0 0 512 512" style="enable-background:new 0 0 512 512;" xml:space="preserve" width="512" height="512">
<g>
	<g>
		<g>
			<g>
				<path style="fill:#B9EBFF;" d="M400.998,115.22c-6.858-0.612-13.536-0.263-19.926,0.91c-2.527,0.464-4.954-1.164-5.395-3.693      C365.271,52.821,313.232,7.5,250.591,7.5c-62.241,0-114.021,44.744-124.888,103.796c-0.413,2.245-2.436,3.806-4.717,3.703      c-1.107-0.05-2.221-0.076-3.341-0.076c-40.77,0-73.759,33.29-73.229,74.15c0.522,40.214,34.072,72.206,74.321,72.206H394.35      c42.109,0,75.917-35.51,73.068-78.196C465.038,147.43,436.617,118.398,400.998,115.22z"/>
			</g>
		</g>
		<g>
			<g>
				<path style="fill:#A0DCF0;" d="M464.719,167.831c-8.796,30.556-36.959,52.919-70.369,52.919H118.737      c-33.578,0-62.476-22.274-71.441-53.004c-1.956,6.76-2.976,13.916-2.879,21.328c0.522,40.214,34.072,72.206,74.321,72.206      H394.35c42.108,0,75.917-35.51,73.068-78.196C467.067,177.833,466.139,172.732,464.719,167.831z"/>
			</g>
		</g>
		<g>
			<g>
				<g>
					<path style="fill:#707384;" d="M366.925,220.707H145.071V195.45c0-20.69,16.773-37.463,37.463-37.463h146.928       c20.69,0,37.463,16.773,37.463,37.463V220.707z"/>
				</g>
			</g>
			<g>
				<g>
					<rect x="145.071" y="220.707" style="fill:#5B5C6C;" width="221.853" height="62.719"/>
				</g>
			</g>
			<g>
				<g>
					<rect x="145.071" y="283.426" style="fill:#707384;" width="221.853" height="62.719"/>
				</g>
			</g>
			<g>
				<g>
					<path style="fill:#5B5C6C;" d="M329.462,408.865H182.534c-20.69,0-37.463-16.773-37.463-37.463v-25.256h221.853v25.256       C366.925,392.092,350.152,408.865,329.462,408.865z"/>
				</g>
			</g>
			<g>
				<g>
					<path style="fill:#5B5C6C;" d="M366.92,195.435v25.275h-44.524v-25.275c0-20.686-16.774-37.448-37.477-37.448h44.524       C350.145,157.988,366.92,174.749,366.92,195.435z"/>
				</g>
			</g>
			<g>
				<g>
					<rect x="322.395" y="220.71" style="fill:#3B3B47;" width="44.524" height="62.712"/>
				</g>
			</g>
			<g>
				<g>
					<rect x="322.395" y="283.423" style="fill:#5B5C6C;" width="44.524" height="62.723"/>
				</g>
			</g>
			<g>
				<g>
					<path style="fill:#3B3B47;" d="M366.92,346.145v25.275c0,20.676-16.774,37.447-37.477,37.447h-44.524       c20.702,0,37.477-16.772,37.477-37.447v-25.275H366.92z"/>
				</g>
			</g>
		</g>
		<g>
			<g>
				<path style="fill:#FFCD74;" d="M294.561,473.386h-19.384c-1.994,0-3.61-1.615-3.61-3.607V450.41      c0-3.292-2.671-5.961-5.966-5.961h-19.207c-3.295,0-5.966,2.669-5.966,5.961v19.368c0,1.992-1.616,3.607-3.61,3.607h-19.384      c-3.295,0-5.966,2.669-5.966,5.961v19.192c0,3.292,2.671,5.961,5.966,5.961h28.959h19.207h28.959      c3.295,0,5.966-2.669,5.966-5.961v-19.192C300.527,476.055,297.856,473.386,294.561,473.386z"/>
			</g>
		</g>
		<g>
			<g>
				<g>
					<path style="fill:#FF9650;" d="M262.021,454.308c0,5.268,4.274,9.539,9.546,9.539l0,0V450.41c0-3.292-2.671-5.961-5.965-5.961       h-3.581V454.308z"/>
				</g>
			</g>
			<g>
				<g>
					<path style="fill:#FF9650;" d="M294.561,473.386h-3.581v0c0,11.915-9.667,21.575-21.592,21.575h-13.333h-19.207h-25.379v3.578       c0,3.292,2.671,5.961,5.966,5.961h28.959h19.207h28.959c3.295,0,5.966-2.669,5.966-5.961v-19.192       C300.527,476.055,297.856,473.386,294.561,473.386z"/>
				</g>
			</g>
		</g>
	</g>
	<g>
		<path d="M474.901,182.58c-2.614-39.166-34.1-71.336-73.239-74.831c-6.403-0.568-12.824-0.386-19.129,0.539    c-5.854-29.662-21.743-56.698-44.962-76.395C313.327,11.326,282.435,0,250.588,0C207.95,0,167.409,20.524,142.14,54.903    c-2.453,3.337-1.736,8.031,1.602,10.484c3.337,2.452,8.031,1.736,10.484-1.602C176.68,33.238,212.703,15,250.588,15    c58.212,0,107.713,41.522,117.701,98.727c0.554,3.183,2.317,5.952,4.967,7.799c2.678,1.867,5.932,2.575,9.163,1.981    c5.877-1.075,11.904-1.351,17.912-0.816c31.853,2.844,57.477,29.021,59.604,60.89c1.229,18.417-5.003,35.946-17.55,49.357    c-12.573,13.44-29.633,20.843-48.037,20.843h-19.923v-33.073V195.45c0-24.793-20.17-44.963-44.963-44.963H182.534    c-24.793,0-44.963,20.17-44.963,44.963v25.257v33.073h-18.833c-36.383,0-66.358-29.072-66.821-64.808    c-0.229-17.706,6.491-34.395,18.926-46.99c12.452-12.615,29.074-19.563,46.806-19.563c0.933,0,1.915,0.023,3.013,0.073    c5.973,0.256,11.321-3.957,12.423-9.837c1.271-6.915,3.172-13.754,5.648-20.326c1.46-3.876-0.498-8.202-4.374-9.663    c-3.877-1.46-8.202,0.498-9.663,4.374c-2.492,6.614-4.466,13.468-5.877,20.389c-0.396-0.007-0.785-0.01-1.17-0.01    c-21.774,0-42.188,8.532-57.481,24.024c-15.274,15.475-23.53,35.974-23.248,57.723c0.567,43.899,37.271,79.613,81.819,79.613    h18.833v14.646v62.72v25.256c0,24.793,20.17,44.963,44.963,44.963h65.964v20.585h-2.104c-7.425,0-13.466,6.038-13.466,13.461    v15.476h-15.494c-7.425,0-13.465,6.038-13.465,13.461v2.094h-78.922c-4.143,0-7.5,3.357-7.5,7.5s3.357,7.5,7.5,7.5h78.922v2.099    c0,7.423,6.04,13.461,13.465,13.461h14.23c4.143,0,7.5-3.357,7.5-7.5s-3.357-7.5-7.5-7.5H218.97v-16.114h17.849    c6.126,0,11.11-4.982,11.11-11.107v-17.829h16.139v17.829c0,6.125,4.984,11.107,11.11,11.107h17.849V497h-27.425    c-4.143,0-7.5,3.357-7.5,7.5s3.357,7.5,7.5,7.5h28.96c7.425,0,13.465-6.038,13.465-13.461v-2.099h78.922    c4.143,0,7.5-3.357,7.5-7.5s-3.357-7.5-7.5-7.5h-78.922v-2.094c0-7.423-6.04-13.461-13.465-13.461h-15.494V450.41    c0-7.423-6.041-13.461-13.466-13.461h-2.104v-20.585h65.964c24.793,0,44.963-20.17,44.963-44.963v-25.256v-62.72V268.78h19.923    c22.273,0,43.775-9.329,58.991-25.595C468.753,226.708,476.41,205.186,474.901,182.58z M152.571,290.926h90.711    c4.143,0,7.5-3.357,7.5-7.5s-3.357-7.5-7.5-7.5h-90.711v-47.719h206.854v47.719h-78.666c-4.143,0-7.5,3.357-7.5,7.5    s3.357,7.5,7.5,7.5h78.666v47.72H152.571V290.926z M152.571,195.45c0-16.521,13.441-29.963,29.963-29.963h146.928    c16.521,0,29.963,13.441,29.963,29.963v17.757H152.571V195.45z M359.425,371.401c0,16.521-13.441,29.963-29.963,29.963H182.534    c-16.521,0-29.963-13.441-29.963-29.963v-17.756h206.854V371.401z"/>
		<ellipse cx="184.707" cy="189.347" rx="8.117" ry="8.11"/>
		<ellipse cx="214.197" cy="189.347" rx="8.116" ry="8.11"/>
		<ellipse cx="184.707" cy="252.067" rx="8.117" ry="8.11"/>
		<ellipse cx="214.197" cy="252.067" rx="8.116" ry="8.11"/>
		<ellipse cx="184.707" cy="314.786" rx="8.117" ry="8.11"/>
		<ellipse cx="214.197" cy="314.786" rx="8.116" ry="8.11"/>
		<ellipse cx="184.707" cy="377.505" rx="8.117" ry="8.11"/>
		<ellipse cx="214.197" cy="377.505" rx="8.117" ry="8.11"/>
		<path d="M330.13,181.848h-30.663c-4.143,0-7.5,3.357-7.5,7.5s3.357,7.5,7.5,7.5h30.663c4.143,0,7.5-3.357,7.5-7.5    S334.272,181.848,330.13,181.848z"/>
		<path d="M299.467,259.566h30.663c4.143,0,7.5-3.357,7.5-7.5s-3.357-7.5-7.5-7.5h-30.663c-4.143,0-7.5,3.357-7.5,7.5    S295.324,259.566,299.467,259.566z"/>
		<path d="M330.13,307.286h-30.663c-4.143,0-7.5,3.357-7.5,7.5s3.357,7.5,7.5,7.5h30.663c4.143,0,7.5-3.357,7.5-7.5    S334.272,307.286,330.13,307.286z"/>
		<path d="M299.467,385.005h30.663c4.143,0,7.5-3.357,7.5-7.5s-3.357-7.5-7.5-7.5h-30.663c-4.143,0-7.5,3.357-7.5,7.5    S295.324,385.005,299.467,385.005z"/>
	</g>
</g>















</svg>
